Coordinates
version=1
nRows=49
nColumns=12
inDegrees=yes

Units are S.I. units (second, meters, Newtons, ...)
Angles are in degrees

endheader
time	SC_y	SC_z	SC_x	AC_y	AC_z	AC_x	GH_y	GH_z	GH_yy	EL_x	PS_y
       0.0              -44.26          9.513           17.8          61.48         -17.96          13.63          173.8          71.13          50.89          38.93           48.9
   0.01012              -44.26          9.511           17.8          61.48         -17.96          13.63          173.8          71.12          50.91          38.93          48.91
   0.02023              -44.25          9.509           17.8          61.48         -17.95          13.63          173.7          71.11          50.93          38.93          48.93
   0.03035              -44.25          9.508           17.8          61.47         -17.95          13.62          173.7          71.11          50.94          38.93          48.95
   0.04047              -44.24          9.506           17.8          61.47         -17.95          13.62          173.6           71.1          50.96          38.92          48.97
   0.05058              -44.23          9.503           17.8          61.47         -17.94          13.61          173.6          71.09          50.98          38.92          48.99
    0.0607              -44.23          9.501          17.81          61.47         -17.94          13.61          173.5          71.08           51.0          38.92          49.01
   0.07082              -44.22          9.499          17.81          61.46         -17.93           13.6          173.5          71.07          51.03          38.91          49.03
   0.08094              -44.21          9.496          17.81          61.46         -17.93           13.6          173.4          71.06          51.05          38.91          49.06
   0.09105              -44.21          9.493          17.81          61.46         -17.92          13.59          173.3          71.05          51.08           38.9          49.08
    0.1012               -44.2           9.49          17.82          61.45         -17.91          13.58          173.3          71.03           51.1           38.9          49.11
    0.1113              -44.19          9.487          17.82          61.45         -17.91          13.58          173.2          71.02          51.13           38.9          49.14
    0.1214              -44.18          9.484          17.82          61.44          -17.9          13.57          173.1           71.0          51.16          38.89          49.18
    0.1315              -44.17           9.48          17.83          61.44         -17.89          13.56          173.0          70.99           51.2          38.88          49.21
    0.1416              -44.16          9.476          17.83          61.43         -17.88          13.55          172.9          70.97          51.24          38.88          49.25
    0.1518              -44.15          9.471          17.84          61.43         -17.87          13.54          172.8          70.95          51.28          38.87          49.29
    0.1619              -44.13          9.466          17.84          61.42         -17.86          13.53          172.6          70.93          51.32          38.86          49.34
     0.172              -44.12          9.461          17.84          61.42         -17.85          13.52          172.5          70.91          51.37          38.86          49.39
    0.1821               -44.1          9.455          17.85          61.41         -17.84          13.51          172.4          70.88          51.42          38.85          49.44
    0.1922              -44.08          9.449          17.86           61.4         -17.83          13.49          172.2          70.86          51.48          38.84           49.5
    0.2023              -44.06          9.442          17.86          61.39         -17.81          13.48          172.0          70.83          51.54          38.83          49.57
    0.2125              -44.04          9.435          17.87          61.38          -17.8          13.46          171.8           70.8          51.61          38.82          49.64
    0.2226              -44.02          9.426          17.88          61.37         -17.78          13.44          171.6          70.76          51.69           38.8          49.72
    0.2327              -43.99          9.417          17.89          61.36         -17.76          13.42          171.4          70.72          51.78          38.79          49.81
    0.2428              -43.97          9.407           17.9          61.35         -17.74           13.4          171.1          70.68          51.87          38.77          49.91
    0.2529              -43.93          9.395          17.91          61.33         -17.71          13.37          170.8          70.63          51.98          38.76          50.02
     0.263               -43.9          9.382          17.92          61.32         -17.69          13.34          170.5          70.57          52.09          38.74          50.14
    0.2732              -43.86          9.368          17.93           61.3         -17.66          13.31          170.2          70.51          52.23          38.71          50.28
    0.2833              -43.81          9.352          17.95          61.28         -17.62          13.27          169.7          70.44          52.38          38.69          50.43
    0.2934              -43.76          9.333          17.97          61.26         -17.58          13.23          169.3          70.36          52.55          38.66          50.61
    0.3035               -43.7          9.312          17.99          61.23         -17.54          13.18          168.7          70.27          52.74          38.63          50.81
    0.3136              -43.64          9.288          18.01           61.2         -17.49          13.13          168.1          70.17          52.97          38.59          51.05
    0.3237              -43.56          9.259          18.04          61.16         -17.43          13.06          167.4          70.05          53.23          38.55          51.31
    0.3339              -43.47          9.227          18.07          61.12         -17.36          12.99          166.6          69.91          53.53           38.5          51.63
     0.344              -43.36          9.189           18.1          61.08         -17.28           12.9          165.6          69.75          53.88          38.44          51.99
    0.3541              -43.24          9.144          18.15          61.02         -17.19           12.8          164.5          69.56          54.29          38.37          52.42
    0.3642              -43.09           9.09           18.2          60.95         -17.08          12.68          163.1          69.33          54.78          38.29          52.93
    0.3743              -42.91          9.026          18.26          60.87         -16.94          12.54          161.5          69.05          55.37          38.19          53.54
    0.3844              -42.69          8.948          18.33          60.78         -16.78          12.36          159.5          68.72          56.09          38.08          54.28
    0.3946              -42.43          8.854          18.42          60.66         -16.58          12.15          157.1          68.32          56.96          37.93          55.19
    0.4047              -42.11          8.737          18.54          60.51         -16.34          11.88          154.2          67.82          58.04          37.76           56.3
    0.4148               -41.7          8.591          18.68          60.33         -16.03          11.55          150.5           67.2          59.38          37.53          57.69
    0.4249              -41.19          8.407          18.85           60.1         -15.64          11.14          145.8          66.41          61.07          37.25          59.45
     0.435              -40.54          8.173          19.07          59.81         -15.16          10.61          139.9          65.42          63.22           36.9          61.67
    0.4451              -39.71          7.874          19.36          59.44         -14.53          9.935          132.3          64.14          65.97          36.45          64.53
    0.4553              -38.65          7.491          19.72          58.96         -13.73          9.068          122.6          62.51           69.5          35.86          68.18
    0.4654              -37.29          7.001          20.19          58.35          -12.7          7.962          110.2          60.42          74.01          35.12          72.86
    0.4755              -35.58          6.384          20.78          57.58         -11.41           6.57          94.62          57.79          79.68          34.18          78.74
    0.4856              -33.49          5.633           21.5          56.64         -9.835          4.874           75.6          54.59          86.59          33.04           85.9
